<?xml version="1.0" standalone="no"?>
<!DOCTYPE svg PUBLIC "-//W3C//DTD SVG 1.1//EN" "http://www.w3.org/Graphics/SVG/1.1/DTD/svg11.dtd" >
<svg xmlns="http://www.w3.org/2000/svg">
<metadata>
Created by FontForge 20120731 at Thu Aug  4 17:33:44 2016
 By admin
</metadata>
<defs>
<font id="iconfont" horiz-adv-x="1024" >
  <font-face 
    font-family="iconfont"
    font-weight="500"
    font-stretch="normal"
    units-per-em="1024"
    panose-1="2 0 6 3 0 0 0 0 0 0"
    ascent="896"
    descent="-128"
    x-height="792"
    bbox="-2 -212 1041.52 896"
    underline-thickness="50"
    underline-position="-100"
    unicode-range="U+0078-E620"
  />
<missing-glyph horiz-adv-x="374" 
d="M34 0v682h272v-682h-272zM68 34h204v614h-204v-614z" />
    <glyph glyph-name=".notdef" horiz-adv-x="374" 
d="M34 0v682h272v-682h-272zM68 34h204v614h-204v-614z" />
    <glyph glyph-name=".null" horiz-adv-x="0" 
 />
    <glyph glyph-name="nonmarkingreturn" horiz-adv-x="341" 
 />
    <glyph glyph-name="x" unicode="x" horiz-adv-x="1001" 
d="M281 543q-27 -1 -53 -1h-83q-18 0 -36.5 -6t-32.5 -18.5t-23 -32t-9 -45.5v-76h912v41q0 16 -0.5 30t-0.5 18q0 13 -5 29t-17 29.5t-31.5 22.5t-49.5 9h-133v-97h-438v97zM955 310v-52q0 -23 0.5 -52t0.5 -58t-10.5 -47.5t-26 -30t-33 -16t-31.5 -4.5q-14 -1 -29.5 -0.5
t-29.5 0.5h-32l-45 128h-439l-44 -128h-29h-34q-20 0 -45 1q-25 0 -41 9.5t-25.5 23t-13.5 29.5t-4 30v167h911zM163 247q-12 0 -21 -8.5t-9 -21.5t9 -21.5t21 -8.5q13 0 22 8.5t9 21.5t-9 21.5t-22 8.5zM316 123q-8 -26 -14 -48q-5 -19 -10.5 -37t-7.5 -25t-3 -15t1 -14.5
t9.5 -10.5t21.5 -4h37h67h81h80h64h36q23 0 34 12t2 38q-5 13 -9.5 30.5t-9.5 34.5q-5 19 -11 39h-368zM336 498v228q0 11 2.5 23t10 21.5t20.5 15.5t34 6h188q31 0 51.5 -14.5t20.5 -52.5v-227h-327z" />
    <glyph glyph-name="uniE600" unicode="&#xe600;" 
d="M81 605q-11 8 -13.5 13t-2.5 14v18q0 24 12.5 38.5t42.5 14.5l785 -1q32 0 44.5 -13t12.5 -37v-20q0 -9 -2.5 -12.5t-14.5 -14.5l-389 -224q-9 -5 -23.5 -12t-19.5 -7q-11 0 -42 20l-16 10q-18 9 -45.5 24.5t-62.5 35.5t-72 42q-86 49 -194 111zM924 527q17 12 27.5 10
t10.5 -17v-357q0 -35 -8 -55t-21.5 -30t-32 -13t-40.5 -3h-684q-35 0 -56.5 9.5t-33.5 24t-17.5 33t-5.5 38.5v344q0 19 10 24.5t24 -5.5q6 -4 31.5 -19.5t54.5 -33.5t53.5 -33.5t29.5 -18.5q13 -8 12.5 -17t-6.5 -18q-4 -7 -11.5 -23.5t-16 -34t-16.5 -33t-12 -23
t-2.5 -12.5t5 -7.5t9 -1.5t11.5 7q3 3 14.5 17t26 30t27 30t17.5 18q5 5 15 11.5t19 0.5q7 -3 21 -12.5t31 -19.5l32 -23q17 -10 29 -17q12 -8 25 -10t24 -0.5t21 4.5t15 6t21.5 12.5t35.5 21.5t36 22.5t23 14.5q10 6 18 4t17 -11q3 -3 14.5 -16.5t25.5 -30.5t25.5 -32.5
t17 -21.5t11.5 -6.5t10.5 3t6 9.5t-2.5 14q-2 3 -8 18l-13 33q-8 18 -15 35t-11 24q-8 17 -8.5 25t10.5 15q2 1 23 15t47 30.5t50 31.5t34 20z" />
    <glyph glyph-name="uniE601" unicode="&#xe601;" horiz-adv-x="1044" 
d="M16 738q-11 8 -14 13.5t-3 14.5v9q0 27 13.5 42.5t45.5 15.5l844 -2q34 0 47.5 -14t13.5 -40l1 -11q0 -9 -2.5 -12.5t-16.5 -15.5l-419 -252q-10 -4 -25 -11t-20 -8q-6 0 -18 5.5t-28 14.5zM646 324q-21 0 -34.5 -9.5t-21 -24t-10 -32t-2.5 -34.5v-71v-13q0 -6 1 -11
h-142q-72 0 -135.5 0.5t-112.5 0.5h-70q-37 0 -60.5 10t-37 25t-18.5 35t-5 42v379q0 21 10 26.5t26 -5.5q5 -3 18.5 -11.5t31.5 -20t38 -24.5t38 -24t31 -19t17 -11q14 -9 16 -22.5t-3 -24.5q-4 -10 -12 -26.5t-17.5 -33t-18 -32t-11.5 -23.5q-5 -15 2 -20t22 4q3 2 17 16
t29.5 31t29 31.5t19.5 18.5q9 8 23.5 11.5t26.5 -2.5q7 -4 19 -12.5t27 -18t31 -19.5l27 -19q12 -8 26 -10t27 -1t23 4.5t15 6.5t19.5 12t31.5 19t32 19.5t22 13.5l129 80q2 1 12.5 8t26.5 17t35 22.5t36 23t31 20t21 13.5q19 12 30 9.5t11 -16.5v-266q-29 23 -56 43.5
t-50 34.5q-22 16 -39 11.5t-28 -20t-16.5 -36t-5.5 -37.5q0 -11 -0.5 -18t-0.5 -12q-1 -5 -1 -8h-15h-105zM1028 216q13 -10 13.5 -28.5t-10.5 -26.5q-15 -13 -35.5 -29.5t-42.5 -34t-43 -35t-39 -30.5q-21 -18 -29.5 -19t-8.5 27v46q0 17 -9 28.5t-23 11.5h-119
q-14 0 -28 10t-14 27v52q0 29 9 35t33 6h20q10 0 21.5 -0.5t28.5 -0.5h43q20 0 29 7t9 26v45q0 18 6 23t22 -8q17 -12 38.5 -29.5t44.5 -35.5t45 -36t39 -31z" />
    <glyph glyph-name="uniE602" unicode="&#xe602;" horiz-adv-x="1000" 
d="M936 -24l-198 203q-1 1 -3.5 2.5t-3.5 2.5q66 93 66 207q0 98 -48 181t-131 131t-180.5 48t-180.5 -48t-131 -131t-48 -180.5t48 -180.5t131 -131t181 -48q121 0 218 74q0 -1 1 -2.5t2 -1.5l198 -204q17 -16 40 -16q22 0 39 15q16 16 16 39t-16 40zM133 391.5
q0 125.5 89.5 215t215.5 89.5t215 -89.5t89 -215t-89 -215t-215 -89.5t-215.5 89.5t-89.5 215z" />
    <glyph glyph-name="uniE603" unicode="&#xe603;" 
d="M871 -17l-174 174q72 87 72 199q0 130 -91.5 221.5t-221 91.5t-221 -91.5t-91.5 -221t91.5 -221t221.5 -91.5q110 0 196 69l130 -128l45 -45q9 -9 21.5 -9t21.5 9t9 21.5t-9 21.5zM456.5 105q-104.5 0 -178 73.5t-73.5 178t73.5 178t178 73.5t178 -73.5t73.5 -178
t-73.5 -178t-178 -73.5z" />
    <glyph glyph-name="uniE604" unicode="&#xe604;" 
d="M63 442v-469q0 -8 0.5 -15t2.5 -12l2 -10q2 -5 3.5 -9t3.5 -7t3.5 -5t2.5 -3.5t2 -2.5l1 -1l288 295zM648 203l289 -295q20 19 20 65v469zM510 109l-92 61l-290 -301q21 -12 45 -12h683q29 4 34 12q-16 17 -88 92.5t-136 142.5l-64 66zM950 503l-440 248l-441 -248
l440 -328z" />
    <glyph glyph-name="uniE605" unicode="&#xe605;" 
d="M910 511l-479 -479q-50 -50 -122 -50t-122.5 50.5t-50.5 122.5t50 123l124 123l355 355q30 30 73 30t73 -30t30 -73t-30 -73l-25 -25l-379 -379q-10 -10 -24 -10t-23.5 9.5t-9.5 23.5t9 24l306 305l-52 52l-305 -305q-31 -32 -31 -76t31 -75t75 -31t75 31l50 49l355 355
q51 52 51 125t-51.5 124.5t-124.5 51.5t-125 -51l-50 -50l-428 -429q-73 -72 -73 -174t72.5 -174t174.5 -72t174 72l479 478z" />
    <glyph glyph-name="uniE606" unicode="&#xe606;" 
d="M983 693h-7h-928h-7l471 -403zM1024 663l-341 -284l341 -343v627zM0 662v-625l341 342zM512 231l-137 120l-341 -348h959l-344 348z" />
    <glyph glyph-name="uniE607" unicode="&#xe607;" 
d="M693 12q-65 0 -122 25t-95.5 65t-60.5 90t-22 101q0 55 17.5 106.5t51 94t90 68.5t126.5 26q132 0 208 -79q34 -36 52.5 -83t17.5 -96q-3 -83 -44 -134t-111 -56q-48 -4 -70 22q-6 9 -10 19q-36 -33 -80 -37t-76 28q-39 42 -34 112q5 68 44 112t95 44q55 0 89 -41l8 33
q2 9 10.5 14.5t18 3t15 -11t2.5 -18.5q-15 -61 -29 -121q-2 -7 -3 -13l-6 -20q-17 -61 -7 -74q6 -7 29 -5q33 3 56 18.5t34 38.5t15.5 44t5.5 44q1 39 -13.5 77t-42.5 66q-63 65 -174 65q-59 0 -105.5 -21t-75 -56.5t-42.5 -78.5t-14 -91q0 -42 18.5 -83.5t50.5 -75
t80.5 -54t102.5 -20.5q35 0 67 6t52.5 14t38.5 18t24 14.5t8 6.5q7 7 17 6.5t16.5 -8t6 -17t-7.5 -16.5q-4 -4 -11 -9t-28 -17t-45 -21.5t-61 -17t-77 -7.5zM670 392q-37 0 -62.5 -31t-29.5 -81q-3 -49 21 -76q14 -14 31 -14q30 0 57.5 25t41.5 65q3 8 6 18q1 4 2 11
q6 33 -12 57q-20 26 -55 26zM703 12h-616q-9 0 -16 7t-7 17v528q0 10 7 17t16.5 7t16.5 -7t7 -17v-504h592q9 0 16 -7t7 -17t-7 -17t-16 -7zM323 311q-10 0 -17 7l-235 229q-12 11 -5.5 26t21.5 15h591q10 0 17 -7t7 -17t-7 -17t-17 -7h-532l193 -188q7 -7 7.5 -17t-6.5 -17
t-17 -7z" />
    <glyph glyph-name="uniE608" unicode="&#xe608;" 
d="M632 -52v-160l192 192h-160q-13 0 -22.5 -9.5t-9.5 -22.5zM888 812h-668q-20 0 -34 -14t-14 -34h668q13 0 22.5 -9.5t9.5 -22.5v-668q20 0 34 14t14 34v668q0 13 -9.5 22.5t-22.5 9.5zM792 716h-656q-13 0 -22.5 -9.5t-9.5 -22.5v-864q0 -13 9.5 -22.5t22.5 -9.5h464v192
q0 13 9.5 22.5t22.5 9.5h192v672q0 13 -9.5 22.5t-22.5 9.5zM577 323.5q-43 -31.5 -107 -31.5q-19 0 -36 3l-13 -68q-3 -16 -5 -28q-2 -9 -4 -21q-1 -6 5 -8l36 -10l-2 -13q-48 1 -82 1q-36 0 -76 -1l2 13l33 9q8 2 9 8l4 22q1 4 3 13t3 15l38 198q2 13 4 23q2 11 3 19
q1 6 -4 8l-33 10l2 13q19 -1 37 -1h38q15 0 33 1t28 1q60 0 93.5 -23t33.5 -67q0 -54 -43 -85.5zM485 474q-9 0 -17 -2l-30 -154q9 -3 23 -3q37 0 58.5 24t21.5 68q0 32 -15.5 49.5t-40.5 17.5z" />
    <glyph glyph-name="uniE609" unicode="&#xe609;" 
d="M927 -85l-157 169q51 55 79.5 125t28.5 148q0 108 -53.5 200t-146 146t-201 54t-200.5 -54t-145.5 -146t-53.5 -200.5t53.5 -200.5t145.5 -145.5t201 -53.5q130 0 235 77l158 -171q11 -12 28 -12q15 0 26 10q11 11 12 26.5t-10 27.5zM154 357q0 88 43.5 162.5t118 118
t162.5 43.5t162.5 -43.5t118 -118t43.5 -162.5t-43.5 -162.5t-118 -118t-162.5 -43.5t-162.5 43.5t-118 118t-43.5 162.5z" />
    <glyph glyph-name="uniE60A" unicode="&#xe60a;" 
d="M512 -125q-116 0 -213.5 57t-154.5 154.5t-57 213t57 213.5t154.5 155t213.5 57t213.5 -57t154.5 -155t57 -213.5t-57 -213t-154.5 -154.5t-213.5 -57zM512 672q-101 0 -186.5 -50t-135.5 -135.5t-50 -186.5t50 -186.5t135.5 -135.5t186.5 -50t186.5 50t135.5 135.5
t50 186.5t-50 186.5t-135.5 135.5t-186.5 50zM698 273h-281l109 -109q8 -8 8 -19t-8 -18.5t-19 -7.5t-18 7l-151 151q-9 9 -7 23q-2 14 7 23l151 151q7 7 18 7t19 -7.5t8 -18.5t-8 -19l-109 -109h281q11 0 19 -8t8 -19t-8 -19t-19 -8z" />
    <glyph glyph-name="uniE60B" unicode="&#xe60b;" 
d="M257 250h102v358h-102v-358zM461 250h102v204h-102v-204zM921 812h-818q-42 0 -72 -30t-30 -72v-562q0 -43 30 -73t72 -30h358v-153h-204q-43 0 -72.5 -30t-29.5 -72v-1h715v1q0 42 -30 72t-72 30h-205v153h358q43 0 72.5 30t29.5 73v562q0 42 -29.5 72t-72.5 30z
M921 250q0 -43 -30 -72.5t-72 -29.5h-613q-43 0 -73 29.5t-30 72.5v358q0 42 30 72t73 30h613q42 0 72 -30t30 -72v-358zM666 250h102v102h-102v-102z" />
    <glyph glyph-name="uniE60C" unicode="&#xe60c;" 
d="M130 557l313 -312v189q22 0 36.5 -0.5t43 -3t49.5 -7t49.5 -13.5t48.5 -21.5t42 -32.5t35.5 -45t22.5 -60t9 -77q0 -100 -61 -176.5t-154 -96.5q149 21 249 138t100 275q0 63 -14.5 117t-37 92t-56.5 68.5t-66.5 49.5t-73.5 33t-71.5 21t-66 10.5t-51.5 4t-33 0.5v161z
" />
    <glyph glyph-name="uniE60D" unicode="&#xe60d;" 
d="M95 564l330 -329v199q23 0 39 -0.5t46 -3t52 -7t52 -14t51.5 -23t44.5 -34.5t37 -47.5t23.5 -63.5t9.5 -81q0 -105 -64.5 -186t-162.5 -102q157 22 263 145.5t106 289.5q0 67 -15.5 124t-39.5 97t-59.5 72.5t-70 52.5t-77.5 35t-75 22t-69.5 11t-54.5 4.5t-36 0.5v170z
" />
    <glyph glyph-name="uniE60E" unicode="&#xe60e;" 
d="M133 517q16 -11 100.5 -70t129.5 -90q5 -4 20.5 -15t26 -18t25.5 -16t27 -13q-1 12 -1 25q0 117 82.5 199.5t200.5 82.5q81 0 149 -43q38 46 38 93q0 32 -23.5 55.5t-55.5 23.5h-725q-38 0 -58.5 -25.5t-20.5 -64.5q0 -31 27 -67t58 -57zM477 227q-23 2 -49.5 14.5
t-43 23t-41.5 29.5q-67 49 -245 170q-28 19 -50 43v-391q0 -33 23 -56t56 -23h617q-92 0 -165 53t-102 137zM743.5 552q-96.5 0 -164.5 -68t-68 -164.5t68 -164.5t164.5 -68t164.5 68t68 164.5t-68 164.5t-164.5 68zM789 170v94q-30 0 -48.5 -1t-45 -6t-44.5 -14.5
t-36.5 -28t-30.5 -44.5q0 45 13 84t32.5 63t43.5 41.5t43.5 24.5t34.5 7h38v89l142 -151z" />
    <glyph glyph-name="uniE60F" unicode="&#xe60f;" 
d="M324 570v-3v-2v-3l1 -2v-3v-2q0 -1 1 -3v-2v-3v-1v-1t1 -3v-2q1 -2 1 -4v-2q1 -2 1 -3t0.5 -2.5t0.5 -2.5t0.5 -2t0.5 -2q1 -1 1 -3v-1q1 -2 1 -3q1 -1 1 -2q1 -2 1 -3v-1q2 -6 5 -11q0 -1 1 -4h1q0 -2 1 -4v-1q1 -1 2 -3v-1q1 -1 2 -3v0l2 -4q27 -48 75 -77t105 -29
q10 0 17.5 7.5t7.5 18t-7.5 18t-17.5 7.5h-8q-68 4 -111 56q-6 8 -11 16q-1 1 -2 3l-2 2v1q-1 1 -1 2v1q-4 6 -7 14q-1 1 -1 2l-1 1v2q-1 1 -1 2t-1 2v1q0 1 -1 2v1q-1 2 -1 3q0 2 -1 2v2q0 1 -0.5 1.5t-0.5 2t-1 2.5v2v2q-1 1 -1 2v2v1v2q-1 1 -1 2v2v2v1q0 1 -0.5 2
t-0.5 2v2v1v3v1v4v4v1v3v1v2l1 1v1v2v2v2v2q1 1 1 2v1v3l1 2v2v1l1 1v3q1 1 1 2v1l1 2v2q1 1 1 1.5t0.5 1.5t0.5 2v2q1 1 1 2v1l1 2q1 1 1 2v2l1 1q1 1 1.5 2t0.5 2t1 1q0 1 0.5 2t0.5 2q1 0 1 1l2 2v1.5t1 1.5q0 1 0.5 1.5t1 1.5t1.5 1l1 2q0 2 1 2v2q1 1 1.5 1t1.5 1l1 2
l1 2l1 1l1 1l1 2l1 1q1 1 1 1.5v1.5h1l2 1q0 1 1 1v1l1 1h1v1v1h2v2q2 1 4 3v1q1 0 2 1l1 1l2 2h1q0 1 1 2q1 0 1 0.5t0.5 0.5t1.5 1l2 2l1 1h1q1 1 2 1.5t2 1.5l1 1q1 1 1.5 1t1.5 1l1 1q1 0 2 0.5t1 1.5l2 1q1 0 2 1l1 1q1 0 2 0.5t1.5 1t1.5 0.5t2 1l1 1q1 0 2 1
q1 0 1.5 0.5t1.5 0.5t2 1q1 0 2 1h1q1 1 2 1h2q1 1 2 1l1 1q1 0 2 0.5t2 0.5t2 1h1q1 0 2 1h2q1 0 2 1h1h3l1 1h2h2q1 1 2 1h1q2 0 3 1h1h2h1h1h2l1 1h3h1h3h8q63 0 108 -45t45 -108q0 -39 -18 -72q-7 -13 -22 -13q-11 0 -18.5 7.5t-7.5 17.5q0 6 3 11q12 23 12 49v76
q0 11 -7.5 18.5t-18.5 7.5q-16 0 -23 -15q-25 15 -53 15q-43 0 -73 -30t-30 -72.5t30 -72.5t73 -30q22 0 42 10q9 -21 28 -34t43 -13q22 0 39.5 11.5t26.5 30.5q25 45 25 98q0 85 -60 144.5t-144 59.5q-79 0 -137 -52q-2 -2 -4 -3q-1 -2 -3 -3v-1q-2 -1 -3 -3h-1
q-1 -1 -2 -3h-1v-1l-3 -3v0q-1 -2 -3 -3q0 -1 -1 -1q-1 -1 -2 -3l-1 -1q-1 -1 -2 -3l-1 -1l-2 -2q0 -1 -1 -2q0 -1 -1 -2t-1 -2l-2 -2q-1 -1 -1 -2l-2 -2q0 -1 -1 -2q0 -1 -1 -2t-1 -2q-1 -1 -2 -3q0 -1 -1 -1q0 -2 -1 -3q0 -1 -1 -2t-1 -2q-1 -1 -1 -2q-1 -2 -1 -3
q-1 0 -1 -2q-1 -1 -1 -2q-1 0 -1.5 -1.5t-0.5 -3.5q-1 0 -1.5 -1.5t-0.5 -2.5t-1 -2.5t-1 -2.5v-2q-1 -2 -1.5 -2.5t-1 -2t-0.5 -2.5l-1 -3q0 -2 -0.5 -2t-1 -2l-0.5 -2v-3q-1 -2 -1 -3l-1 -2v-3v-2q-1 -2 -1 -2.5t-0.5 -2.5l-0.5 -2v-3q0 -2 -1 -3v-2v-3v-2v-1q0 -1 -1 -2
v-3v-1v-1v-3v-1v-1v-5v0v-5v-2zM528.5 526q-21.5 0 -36.5 15t-15 36t15 36t36.5 15t36.5 -15t15 -36t-15 -36t-36.5 -15zM833 527q-7 5 -15 5q-10 0 -17 -6l-2 -2l-220 -220q-22 -22 -51 -21q-30 -1 -52 21l-220 220l-2 2q-7 6 -17 6q-8 0 -15 -5q-24 -13 -38.5 -37
t-14.5 -52v-307q0 -43 30 -73t73 -30h256h255q43 0 73 30t30 73v307q0 28 -14.5 52t-38.5 37zM835 151q0 -30 -21 -50.5t-51 -20.5h-235h-236q-30 0 -50.5 20.5t-20.5 50.5v266q0 29 20 50l214 -214q30 -30 73 -30q42 0 72 30l214 214q21 -21 21 -50v-266z" />
    <glyph glyph-name="uniE610" unicode="&#xe610;" 
d="M867 613q3 27 -3.5 49.5t-29.5 50.5l-90 90q-24 22 -76 28q-29 3 -54.5 -8t-37.5 -23l-11 -12l-404 -404q-3 -3 -7.5 -8.5t-17 -22.5t-22.5 -36t-18 -47.5t-9 -56.5q-2 -60 24 -105.5t75 -93.5q28 -29 60.5 -47.5t61.5 -24.5t54 -5.5t43 8.5q23 9 48 25.5t38 27.5l13 12
l433 433l-48 48l-427 -426q-2 -3 -7 -7.5t-20 -16t-29 -19.5t-33 -13.5t-34 -2.5q-36 6 -80 37.5t-70 71.5q-20 30 -26.5 64.5t-2.5 50.5q12 66 55 110l394 394q3 3 8.5 7.5t21 12t28.5 7.5t26 -5t19 -11l7 -5l49 -50q3 -3 7.5 -8.5t11.5 -22t7 -30.5t-8.5 -30.5
t-18.5 -26.5l-97 -96l-172 -174l-85 -84q-3 -2 -9.5 -5t-22 -2t-25.5 12t-11.5 23.5t1 21t7.5 15.5l257 257l-48 48l-268 -268l-4 -4q-3 -3 -8.5 -12.5t-8.5 -20t-3 -27t7 -33.5q11 -31 43.5 -58.5t68.5 -26.5q21 1 42 11.5t31 21.5l11 10l343 343q5 5 13 13.5t22 31.5
t16 44zM867 613z" />
    <glyph glyph-name="uniE611" unicode="&#xe611;" 
d="M632 32v-160l192 192h-160q-13 0 -22.5 -9.5t-9.5 -22.5zM792 800h-656q-13 0 -22.5 -9.5t-9.5 -22.5v-864q0 -13 9.5 -22.5t22.5 -9.5h464v192q0 13 9.5 22.5t22.5 9.5h192v672q0 13 -9.5 22.5t-22.5 9.5zM720 546l-27 -7q-6 -2 -10.5 -5t-8 -7t-6.5 -8q-3 -5 -5 -8
l-159 -302l-30 -3l-27 204l-3 29l-15 -29l-108 -201l-30 -3l-39 301q-1 7 -2 12.5t-3 9t-5 6.5t-10 4l-26 7l2 13q20 0 40 -1h38q34 0 78 1l-1 -13l-25 -7q-5 -1 -8.5 -4t-3.5 -11q0 -4 1 -12t2 -18l18 -142l3 -32l16 32l111 208l26 2l26 -210l3 -32l15 32l72 141
q7 13 12 24q5 10 5 14q0 5 -8 8l-24 7l2 13q18 -1 32 -1h29h28q14 0 27 1zM888 896h-668q-20 0 -34 -14t-14 -34h668q13 0 22.5 -9.5t9.5 -22.5v-668q20 0 34 14t14 34v668q0 13 -9.5 22.5t-22.5 9.5z" />
    <glyph glyph-name="uniE612" unicode="&#xe612;" 
d="M651 96q0 8 -5 14t-12 6h-244q-7 0 -12 -6t-5 -14v-78h-174v-59h626v59h-174v78zM903 809h-782q-25 0 -42 -17t-17 -42v-548q0 -24 17 -41t42 -17h782q25 0 42 17t17 41v548q0 25 -17 42t-42 17v0zM903 222q0 -8 -5.5 -13.5t-13.5 -5.5h-744q-8 0 -13.5 5.5t-5.5 13.5
v509q0 8 5.5 13.5t13.5 5.5h744q8 0 13.5 -5.5t5.5 -13.5v-509zM703 260h106v308h-106v-308zM534 260h105v403h-105v-403zM216 260h106v118h-106v-118zM364 260h106v213h-106v-213z" />
    <glyph glyph-name="uniE613" unicode="&#xe613;" 
d="M960 597l-170 -162l-1 1l-180 -174q-23 -30 -47.5 -44.5t-37.5 -13.5h-14q-26 0 -50 15t-35 30l-11 15l-125 119l-1 -2l-224 216v-462v-3v-68h60h2h770h2h62v68v1v464zM516 555q-24 0 -39 -23.5t-15 -57.5q0 -23 10 -36t27 -13q24 0 38 24.5t14 63.5q0 20 -9 31t-26 11z
M899 704h-2h-740h-34h-59v-71h1l385 -354q21 -22 41.5 -29.5t35.5 -4t26.5 11t17.5 14.5t6 8l382 353v72h-60zM653 430.5q-24 -30.5 -58 -30.5q-21 0 -32.5 12.5t-11.5 33.5h-1q-15 -46 -57 -46q-27 0 -43.5 20t-16.5 55q0 45 23 74.5t60 29.5q14 0 25.5 -7t14.5 -18h1
q0 3 2 22h27q-1 -3 -3 -32q-7 -66 -7 -79q0 -41 23 -41q21 0 35 23.5t14 59.5q0 54 -34.5 88.5t-95.5 34.5q-58 0 -97 -41t-39 -103q0 -61 37 -98.5t98 -37.5q48 0 84 17v-26q-33 -15 -86 -15q-73 0 -117.5 44t-44.5 114q0 73 47 121.5t120 48.5q68 0 112.5 -40t44.5 -103
q0 -50 -24 -80.5z" />
    <glyph glyph-name="uniE614" unicode="&#xe614;" 
d="M532 837zM872 2h-752l-2 1q-26 6 -37 22.5t-10 31.5v531h41v-532q0 -9 13 -13h747q9 1 11 13v532h41v-535v-1q-3 -26 -19.5 -38t-32.5 -12zM925 63h-41v531q-1 13 -17 23h-740q-13 -7 -15 -22v-532h-41v535v1q3 23 17 38t28 20l3 1h759l4 -2q23 -13 33 -30.5t10 -32.5
v-530zM904 566zM658 278zM343 280zM89 562zM645 300l256 -259l-29 -29l-256 260zM348 302l29 -29l-251 -260l-29 28zM484 168l-398 313l25 32l374 -294q384 285 398 295l23 -34q-15 -10 -409 -303z" />
    <glyph glyph-name="uniE615" unicode="&#xe615;" 
d="M532 837zM879 -60h-712l-3 1q-24 6 -35 21.5t-10 30.5v513l386 294l26 23l398 -318v-516v-1q-4 -29 -27 -42q-12 -6 -23 -6zM172 -19h706q8 1 10 11v494l-355 284l-2 -2l-371 -283v-493q0 -8 12 -11zM685 182h-315l-246 273l30 27l235 -259h277l227 265l31 -27zM691 216
l216 -238l-30 -28l-217 238zM365 216l30 -28l-222 -238l-30 28z" />
    <glyph glyph-name="uniE616" unicode="&#xe616;" 
d="M396 701v-593q-1 -6 -0.5 -14t5.5 -29.5t16 -38t36 -30t61 -13.5q32 0 55.5 13.5t34.5 30t17 38t6.5 30t0.5 13.5v624v10q0 5 -3.5 22t-9 32.5t-17.5 34.5t-28.5 32.5t-43.5 23t-60.5 9.5t-60.5 -9t-43.5 -23.5t-28.5 -32t-17.5 -35t-9 -32t-3.5 -23.5v-9v-624v-14
q0 -8 4.5 -32.5t11.5 -47t23 -49.5t37 -46.5t55.5 -33t77.5 -13.5q34 0 62.5 8t48.5 21.5t36.5 31.5t26.5 37.5t17 39t10.5 37t5.5 31t2 21.5v9v624q0 12 -11.5 17t-23 0t-11.5 -17v-624q0 -4 0.5 -11t-1.5 -26.5t-6.5 -37.5t-16 -40t-28.5 -37.5t-45.5 -26t-65.5 -10.5
q-33 0 -60 10.5t-43.5 26t-29 37.5t-18 40t-8.5 37.5t-3.5 26.5t-0.5 11v624q0 5 0.5 13t7 28t17.5 35.5t35 28t56.5 12.5t56.5 -12t35 -29t17 -34.5t7 -29.5l1 -12v-624q0 -3 -0.5 -8t-4 -18t-10 -22.5t-20.5 -17.5t-33 -8t-33.5 8t-21.5 18t-11 22t-5 17.5t-1 8.5v593
q0 13 -11.5 17.5t-23 0t-11.5 -17.5z" />
    <glyph glyph-name="uniE617" unicode="&#xe617;" 
d="M873 757h-730q-30 0 -52 -20l-1 -1q-1 0 -2 -1h-1q-23 -24 -23 -57v-558q0 -33 23 -56.5t56 -23.5h730q33 0 56 23.5t23 56.5v558q0 33 -23 56t-56 23zM143 726h730q9 0 18 -4l-384 -386l-383 386q9 4 19 4zM95 120v558q0 11 6 22l297 -298l-299 -301q-4 9 -4 19zM873 72
h-730q-12 0 -23 6l300 301l72 -72v-1h1q3 -11 15 -11t15 12l72 72l300 -302q-11 -5 -22 -5zM920 120q0 -10 -3 -19l-300 301l297 298q6 -11 6 -22v-558z" />
    <glyph glyph-name="uniE618" unicode="&#xe618;" 
d="M935 29q0 -31 -22.5 -53.5t-53.5 -22.5h-693q-31 0 -54 22.5t-23 53.5v501l2 -1q0 8 6 13l402 287q6 4 13 2q7 2 13 -2l402 -287q6 -5 6 -13l2 1v-501zM905 495l-281 -219l281 -219v438zM166 -17h693q16 0 29 10.5t16 26.5l-305 237l-73 -57q-4 -4 -9 -4q-1 0 -5 1
q-3 -1 -4 -1q-5 0 -9 4l-74 57l-305 -238q4 -15 17 -25.5t29 -10.5zM119 57l282 219l-282 219v-438zM512 801l-384 -274l384 -300l384 299z" />
    <glyph glyph-name="uniE619" unicode="&#xe619;" 
d="M896 768h-768q-35 0 -60 -25t-25 -60v-512q0 -36 25 -61t60 -25h213v-85h342v85h213q35 0 60 25t25 61v512q0 35 -25 60t-60 25zM896 171h-768v512h768v-512zM811 555h-470v-86h470v86zM811 384h-470v-85h470v85zM299 555h-86v-86h86v86zM299 384h-86v-85h86v85z" />
    <glyph glyph-name="uniE61A" unicode="&#xe61a;" 
d="M957 704h-892l446 -375zM661 420l298 -356v608zM511 292l-130 107l-285 -335h830l-284 339zM62 672v-608l298 356z" />
    <glyph glyph-name="uniE61B" unicode="&#xe61b;" 
d="M203 50v677q0 24 17 41.5t42 17.5h500q25 0 42 -17.5t17 -41.5v-444h59v444q0 49 -34.5 83.5t-83.5 34.5h-500q-49 0 -83.5 -34.5t-34.5 -83.5v-677q0 -49 34.5 -83.5t83.5 -34.5h235v59h-235q-25 0 -42 17.5t-17 41.5zM718 491.5q0 12.5 -8.5 21t-20.5 8.5h-354
q-12 0 -20.5 -9t-8.5 -21t8.5 -20.5t20.5 -8.5h353q13 0 21.5 8.5t8.5 21zM328 374q-9 0 -15.5 -6.5t-6.5 -16t6.5 -15.5t15.5 -6h118q9 0 15.5 6t6.5 15.5t-6.5 16t-15.5 6.5h-118zM688 668h-353q-12 0 -20.5 -8.5t-8.5 -20.5t8.5 -20.5t20.5 -8.5h353q13 0 21.5 8.5
t8.5 20.5t-8.5 20.5t-21.5 8.5zM534 374h-15q-9 0 -15.5 -6.5t-6.5 -16t6.5 -15.5t15.5 -6h15q9 0 15.5 6t6.5 16q0 9 -6.5 15.5t-15.5 6.5zM880 148l-26 44q-3 -1 -9.5 -2t-23 -1t-29.5 5t-26.5 20t-17.5 39h-52q-1 -2 -1.5 -5t-4 -11.5t-8 -15t-12.5 -16t-19 -12.5
t-26.5 -5.5t-35.5 4.5l-27 -45q3 -2 7.5 -6t13 -16t11 -25.5t-4.5 -32.5t-27 -39l28 -45q3 1 8.5 2.5t20.5 2.5t28 -3t27 -20t21 -42h53q0 2 1 5t4.5 12t8 15.5t13 15.5t19.5 12t26 5.5t34 -4.5l26 44q-3 2 -7.5 6.5t-12 17.5t-10.5 26.5t4 33t26 36.5zM720.5 28
q-25.5 0 -43 17.5t-17.5 43t17.5 43t43 17.5t43 -17.5t17.5 -43t-17.5 -43t-43 -17.5z" />
    <glyph glyph-name="uniE61C" unicode="&#xe61c;" 
d="M754 753h-574q-12 0 -20 -8.5t-8 -19.5v-756q0 -12 8 -20t20 -8h406v168q0 11 8 19.5t20 8.5h168v588q0 11 -8.5 19.5t-19.5 8.5v0zM638 507q-13 0 -21.5 -3t-18.5 -12q-7 -5 -35 -32l-69 -69l61 -123q15 -31 23 -37.5t19 -7.5l-1 -8h-147l2 8q18 1 23.5 5t6.5 10
q1 4 0 7q-2 7 -11 25l-33 65l-55 -56q-26 -26 -27 -35q-1 -6 3 -12t14 -8q5 -1 19 -1l-1 -8h-116l2 8q20 3 33 10q16 10 49 43l72 73l-57 112q-14 28 -16 31q-4 7 -9.5 10t-15.5 5l2 8h149l-2 -8h-7q-13 0 -19 -4t-7 -11q-1 -4 0 -8l11 -23l28 -57l38 39q30 30 32 42
q1 6 -1.5 11t-8.5 8t-19 3l1 8h111l-2 -8v0zM638 507zM620 76v-140l168 168h-140q-12 0 -20 -8t-8 -20v0zM620 76zM844 832h-584q-18 0 -30 -12.5t-12 -29.5h584q12 0 20 -8t8 -20v-584q17 0 29.5 12t12.5 30v584q0 12 -8 20t-20 8v0zM844 832z" />
    <glyph glyph-name="uniE61D" unicode="&#xe61d;" horiz-adv-x="1026" 
d="M822.5 290q-9.5 0 -15.5 -6.5t-6 -15.5v-206q0 -32 -21.5 -55t-50.5 -23h-555q-30 0 -51 23t-21 55v644q0 32 21 55t51 23h555q29 0 50.5 -23t21.5 -55v-33q0 -9 6 -15.5t15.5 -6.5t15.5 6.5t6 15.5v33q0 51 -33.5 86.5t-81.5 35.5h-555q-48 0 -82 -35.5t-34 -86.5v-644
q0 -50 34 -85.5t82 -35.5h555q48 0 81.5 35.5t33.5 85.5v206q0 9 -6 15.5t-15.5 6.5zM999 552l-96 96q-10 10 -26 10t-26 -10l-378 -378l-1 -1q-5 -5 -7 -11l-46 -163l-1 -3v-1v-3v-3l1 -2l1 -3q1 -2 1 -3l4 -4l2 -2q2 -1 5 -3h2q2 -1 4 -1h2h1q3 0 5 1l166 48l2 1
q1 0 2.5 1t2.5 2l380 380q11 10 11 25.5t-11 26.5zM926 563l-358 -358l-49 49l358 358zM564 148l-46 -14l-33 34l13 46zM964 526l-358 -358l-7 6l358 358zM672 683h-439q-9 0 -15.5 -6.5t-6.5 -15.5t6.5 -15.5t15.5 -6.5h439q9 0 15.5 6.5t6.5 15.5t-6.5 15.5t-15.5 6.5z
M694 566q0 9 -6.5 15t-15.5 6h-439q-9 0 -15.5 -6t-6.5 -15t6.5 -15.5t15.5 -6.5h439q9 0 15.5 6.5t6.5 15.5zM477 492h-244q-9 0 -15.5 -6.5t-6.5 -15.5t6.5 -15.5t15.5 -6.5h244q9 0 15.5 6.5t6.5 15.5t-6.5 15.5t-15.5 6.5zM497 375q0 9 -6.5 15.5t-15.5 6.5h-242
q-9 0 -15.5 -6.5t-6.5 -15.5t6.5 -15.5t15.5 -6.5h242q9 0 15.5 6.5t6.5 15.5zM366 301h-133q-9 0 -15.5 -6.5t-6.5 -15.5t6.5 -15t15.5 -6h133q9 0 15.5 6t6.5 15t-6.5 15.5t-15.5 6.5zM233 162h125q9 0 15.5 6.5t6.5 15.5t-6.5 15.5t-15.5 6.5h-125q-9 0 -15.5 -6.5
t-6.5 -15.5t6.5 -15.5t15.5 -6.5zM233 67h128q9 0 15.5 6.5t6.5 15.5t-6.5 15t-15.5 6h-128q-9 0 -15.5 -6t-6.5 -15t6.5 -15.5t15.5 -6.5z" />
    <glyph glyph-name="uniE61E" unicode="&#xe61e;" 
d="M203 50v677q0 24 17 41.5t42 17.5h500q25 0 42 -17.5t17 -41.5v-444h59v444q0 49 -34.5 83.5t-83.5 34.5h-500q-49 0 -83.5 -34.5t-34.5 -83.5v-677q0 -49 34.5 -83.5t83.5 -34.5h235v59h-235q-25 0 -42 17.5t-17 41.5zM718 491.5q0 12.5 -8.5 21t-20.5 8.5h-354
q-12 0 -20.5 -9t-8.5 -21t8.5 -20.5t20.5 -8.5h353q13 0 21.5 8.5t8.5 21zM328 374q-9 0 -15.5 -6.5t-6.5 -16t6.5 -15.5t15.5 -6h118q9 0 15.5 6t6.5 15.5t-6.5 16t-15.5 6.5h-118zM688 668h-353q-12 0 -20.5 -8.5t-8.5 -20.5t8.5 -20.5t20.5 -8.5h353q13 0 21.5 8.5
t8.5 20.5t-8.5 20.5t-21.5 8.5zM534 374h-15q-9 0 -15.5 -6.5t-6.5 -16t6.5 -15.5t15.5 -6h15q9 0 15.5 6t6.5 16q0 9 -6.5 15.5t-15.5 6.5zM880 148l-26 44q-3 -1 -9.5 -2t-23 -1t-29.5 5t-26.5 20t-17.5 39h-52q-1 -2 -1.5 -5t-4 -11.5t-8 -15t-12.5 -16t-19 -12.5
t-26.5 -5.5t-35.5 4.5l-27 -45q3 -2 7.5 -6t13 -16t11 -25.5t-4.5 -32.5t-27 -39l28 -45q3 1 8.5 2.5t20.5 2.5t28 -3t27 -20t21 -42h53q0 2 1 5t4.5 12t8 15.5t13 15.5t19.5 12t26 5.5t34 -4.5l26 44q-3 2 -7.5 6.5t-12 17.5t-10.5 26.5t4 33t26 36.5zM720.5 28
q-25.5 0 -43 17.5t-17.5 43t17.5 43t43 17.5t43 -17.5t17.5 -43t-17.5 -43t-43 -17.5z" />
    <glyph glyph-name="uniE61F" unicode="&#xe61f;" 
d="M734 896h-654v-1024h853v818zM285 -9h-68v17h68v-17zM387 -9h-68v17h68v-17zM490 -9h-69v17h69v-17zM592 -9h-68v17h68v-17zM694 -9h-68v17h68v-17zM719 179h-135l-81 126l-80 -126h-135l143 221l-146 225h131l88 -140l88 140h127l-141 -224zM797 -9h-68v17h68v-17z
M728 690v173l172 -173h-172z" />
    <glyph glyph-name="uniE620" unicode="&#xe620;" 
d="M739 896h-654v-1024h854v818zM273 -26h-68v17h68v-17zM375 -26h-68v17h68v-17zM478 -26h-68v17h68v-17zM450 218h-81l-97 366h80l58 -249h1l64 249h75l62 -252h1l60 252h79l-98 -366h-80l-62 249h-1zM580 -26h-68v17h68v-17zM683 -26h-69v17h69v-17zM785 -26h-68v17h68
v-17zM733 690v173l172 -173h-172z" />
  </font>
</defs>
</svg>
